<svg width="66" height="66" viewBox="0 0 66 66" fill="none" xmlns="http://www.w3.org/2000/svg">
<symbol id="arrov-right" viewBox="0 0 64 64">
<path d="M33 5.5C17.8365 5.5 5.5 17.8365 5.5 33C5.5 48.1635 17.8365 60.5 33 60.5C48.1635 60.5 60.5 48.1635 60.5 33C60.5 17.8365 48.1635 5.5 33 5.5ZM46.1065 34.5538L39.5065 41.1538C39.083 41.5773 38.522 41.8 37.95 41.8C37.6668 41.8 37.3808 41.745 37.1085 41.6323C36.2863 41.2913 35.75 40.4883 35.75 39.6V35.75H22C20.482 35.75 19.25 34.518 19.25 33C19.25 31.482 20.482 30.25 22 30.25H35.75V26.4C35.75 25.5118 36.2863 24.7088 37.1085 24.3678C37.9335 24.0295 38.8768 24.2165 39.5065 24.8435L46.1065 31.4435C46.9645 32.3043 46.9645 33.6958 46.1065 34.5538Z"/>
</symbol>
<symbol id="arrov-left" viewBox="0 0 64 64">
<path d="M28 55.5001C43.1635 55.5001 55.5 43.1636 55.5 28.0001C55.5 12.8366 43.1635 0.500118 28 0.500118C12.8365 0.500118 0.5 12.8366 0.5 28.0001C0.5 43.1636 12.8365 55.5001 28 55.5001ZM14.8935 26.4464L21.4935 19.8464C21.917 19.4229 22.478 19.2001 23.05 19.2001C23.3332 19.2001 23.6192 19.2551 23.8915 19.3679C24.7137 19.7089 25.25 20.5119 25.25 21.4001V25.2501H39C40.518 25.2501 41.75 26.4821 41.75 28.0001C41.75 29.5181 40.518 30.7501 39 30.7501H25.25V34.6001C25.25 35.4884 24.7137 36.2914 23.8915 36.6324C23.0665 36.9706 22.1232 36.7836 21.4935 36.1566L14.8935 29.5566C14.0355 28.6959 14.0355 27.3044 14.8935 26.4464Z"/>
</symbol>
</svg>
