<svg xmlns="http://www.w3.org/2000/svg" viewBox="0 0 50 50"><path d="M9 4C6.24 4 4 6.24 4 9L4 41C4 43.76 6.24 46 9 46L41 46C43.76 46 46 43.76 46 41L46 9C46 6.24 43.76 4 41 4L9 4 z M 25 9C29.42 9 33 12.58 33 17C33 21.42 29.42 25 25 25C20.58 25 17 21.42 17 17C17 12.58 20.58 9 25 9 z M 25 13 A 4 4 0 0 0 21 17 A 4 4 0 0 0 25 21 A 4 4 0 0 0 29 17 A 4 4 0 0 0 25 13 z M 33 26.490234C33.63 26.490234 34.250625 26.789609 34.640625 27.349609C35.270625 28.249609 35.050625 29.500859 34.140625 30.130859C32.640625 31.180859 30.99 31.939922 29.25 32.419922L34.410156 37.589844C35.200156 38.369844 35.200156 39.630156 34.410156 40.410156C34.020156 40.800156 33.51 41 33 41C32.49 41 31.979844 40.800156 31.589844 40.410156L25 33.830078L18.410156 40.410156C18.020156 40.800156 17.51 41 17 41C16.49 41 15.979844 40.800156 15.589844 40.410156C14.799844 39.630156 14.799844 38.369844 15.589844 37.589844L20.75 32.419922C19.02 31.939922 17.369141 31.190625 15.869141 30.140625C14.969141 29.510625 14.739141 28.269375 15.369141 27.359375C15.759141 26.799375 16.379531 26.5 17.019531 26.5C17.409531 26.5 17.810156 26.619375 18.160156 26.859375C20.170156 28.259375 22.54 29 25 29C27.47 29 29.839375 28.259609 31.859375 26.849609C32.199375 26.609609 32.6 26.490234 33 26.490234 z"/></svg>