<?xml version="1.0" standalone="no"?>
<!DOCTYPE svg PUBLIC "-//W3C//DTD SVG 20010904//EN"
 "http://www.w3.org/TR/2001/REC-SVG-20010904/DTD/svg10.dtd">
<svg version="1.0" xmlns="http://www.w3.org/2000/svg"
 width="260.000000pt" height="260.000000pt" viewBox="0 0 260.000000 260.000000"
 preserveAspectRatio="xMidYMid meet">
<metadata>
Created by potrace 1.11, written by Peter Selinger 2001-2013
</metadata>
<g transform="translate(0.000000,260.000000) scale(0.100000,-0.100000)"
fill="#000000" stroke="none">
<path d="M931 2552 c-46 -23 -86 -44 -88 -45 -8 -9 -15 -99 -7 -94 6 3 48 7
94 8 80 2 91 5 183 50 53 27 97 52 97 56 0 4 -5 22 -12 40 l-12 34 -85 -3
c-77 -3 -93 -7 -170 -46z"/>
<path d="M1126 2353 c-49 -26 -89 -50 -88 -53 5 -77 17 -140 26 -141 6 0 18
-2 26 -3 8 -2 44 -6 80 -10 36 -4 72 -9 80 -11 60 -17 74 -14 174 42 56 30
102 57 104 58 2 2 -12 33 -30 69 -21 41 -40 68 -53 71 -32 7 -85 14 -160 20
-69 6 -71 5 -159 -42z"/>
<path d="M1623 2373 c-40 -14 -73 -28 -73 -32 0 -13 61 -120 72 -127 6 -4 66
-26 135 -49 l124 -42 59 31 c61 32 70 44 47 68 -7 7 -28 34 -46 60 -31 44 -39
48 -135 78 -55 18 -103 34 -106 35 -3 1 -38 -9 -77 -22z"/>
<path d="M738 2331 c-23 -7 -177 -131 -188 -150 -5 -11 -13 -49 -16 -85 l-6
-66 28 -1 c16 -1 59 -2 95 -4 l67 -3 103 80 c113 87 130 104 123 122 -5 14
-11 56 -13 94 -1 22 -3 23 -91 20 -49 -2 -95 -5 -102 -7z"/>
<path d="M415 2247 c-32 -6 -59 -19 -74 -36 -13 -14 -40 -44 -60 -66 -49 -53
-51 -56 -72 -138 -11 -45 -15 -75 -9 -82 5 -6 31 -12 57 -14 47 -2 50 0 85 46
21 26 58 70 83 96 25 26 45 53 46 60 0 7 2 21 4 32 2 11 7 41 10 68 7 52 10
51 -70 34z"/>
<path d="M1568 2166 c-68 -35 -158 -87 -162 -94 -2 -4 2 -25 9 -47 8 -22 23
-72 35 -111 l21 -70 165 -56 165 -55 42 34 c23 19 61 51 85 70 23 19 42 41 42
48 0 26 -94 206 -113 216 -22 12 -107 43 -189 69 -56 18 -57 18 -100 -4z"/>
<path d="M1968 2131 c-26 -15 -50 -29 -53 -32 -7 -8 90 -212 107 -226 7 -6 60
-36 118 -66 l105 -55 25 30 c14 16 33 39 43 51 11 13 15 28 11 41 -16 52 -89
178 -113 194 -55 39 -160 92 -178 91 -10 -1 -39 -13 -65 -28z"/>
<path d="M960 2045 c-140 -108 -135 -100 -131 -202 4 -122 6 -141 13 -149 5
-4 248 -59 284 -64 0 0 14 11 30 25 16 14 72 58 124 98 52 40 100 77 106 82 8
8 4 33 -13 90 -48 159 -41 148 -113 162 -36 6 -99 14 -140 18 l-75 6 -85 -66z"/>
<path d="M2287 2075 l-27 -24 46 -93 c25 -51 54 -100 63 -108 50 -45 121 -100
129 -100 5 0 14 17 21 38 12 36 11 43 -21 113 -34 71 -93 140 -158 182 -24 15
-26 14 -53 -8z"/>
<path d="M1969 1807 c-20 -18 -57 -51 -82 -72 l-46 -40 47 -164 47 -164 118
-54 c65 -29 122 -53 127 -53 9 0 116 141 131 173 8 17 6 41 -10 97 -47 177
-51 186 -107 217 -101 56 -173 93 -180 93 -5 0 -25 -15 -45 -33z"/>
<path d="M2354 1822 c-6 -4 -26 -28 -46 -54 l-36 -48 24 -77 c13 -43 31 -104
39 -136 16 -55 20 -60 90 -107 l73 -49 32 67 c36 75 36 82 -4 213 -25 83 -28
87 -94 141 -38 31 -73 53 -78 50z"/>
<path d="M233 1811 c-5 -3 -31 -42 -57 -85 -47 -79 -48 -81 -52 -182 l-5 -103
40 -26 c22 -14 45 -25 50 -25 5 0 34 39 64 88 l55 87 5 118 c2 64 0 117 -4
117 -11 0 -6 -1 -50 9 -21 5 -41 6 -46 2z"/>
<path d="M1418 1768 c-102 -73 -228 -182 -228 -197 0 -15 26 -159 53 -296 l12
-59 189 -59 189 -59 124 124 124 123 -6 40 c-10 65 -77 286 -91 300 -11 10
-173 68 -311 110 -6 2 -31 -10 -55 -27z"/>
<path d="M749 1593 c-30 -31 -61 -63 -69 -72 -8 -9 -31 -36 -51 -61 -33 -42
-35 -48 -28 -95 4 -27 12 -92 19 -143 8 -56 20 -101 29 -111 9 -10 57 -35 106
-57 50 -21 100 -44 112 -52 12 -7 29 -12 37 -10 23 5 246 229 246 247 0 9 -7
52 -16 96 -8 44 -17 94 -19 110 -3 17 -7 41 -10 55 -3 14 -8 39 -11 57 -7 36
-3 34 -134 62 -170 36 -151 38 -211 -26z"/>
<path d="M287 1416 c-62 -101 -60 -91 -41 -221 19 -126 19 -126 104 -182 l79
-52 34 42 c68 84 107 140 103 146 -2 3 -7 31 -11 61 -4 30 -8 57 -10 60 -2 3
-6 30 -9 60 -4 30 -8 68 -10 83 -2 16 -7 32 -12 36 -10 9 -151 61 -162 61 -4
-1 -33 -43 -65 -94z"/>
<path d="M2275 1314 l-68 -97 7 -66 c3 -36 9 -100 12 -141 4 -41 11 -80 18
-86 6 -6 42 -19 79 -29 80 -21 75 -25 143 85 50 80 52 90 40 210 -12 124 -12
126 -69 161 -29 18 -61 38 -73 46 -20 12 -25 8 -89 -83z"/>
<path d="M1866 1267 c-27 -29 -81 -86 -121 -127 l-72 -75 24 -145 c13 -80 25
-154 27 -164 1 -11 9 -20 17 -22 8 -1 68 -12 134 -23 l120 -22 61 63 c34 35
80 85 104 112 l42 50 -6 92 c-6 86 -9 104 -21 179 -5 28 -14 34 -118 77 -61
26 -119 49 -127 52 -9 3 -34 -15 -64 -47z"/>
<path d="M16 1243 c-24 -74 -7 -225 33 -293 l25 -44 13 44 c8 26 11 62 7 85
-7 51 -11 79 -19 135 -4 27 -15 54 -30 69 -22 23 -23 23 -29 4z"/>
<path d="M1234 1157 c-11 -6 -35 -27 -55 -46 -20 -20 -68 -67 -107 -104 -40
-38 -72 -76 -72 -85 0 -30 82 -272 99 -292 14 -17 274 -100 312 -100 13 0 181
122 239 173 25 23 27 29 20 69 -5 23 -11 59 -14 78 -3 19 -7 44 -10 55 -2 11
-7 48 -11 82 -5 43 -12 63 -23 68 -10 4 -73 24 -142 45 -69 21 -146 45 -171
53 -34 10 -52 11 -65 4z"/>
<path d="M2468 948 c-58 -96 -62 -109 -70 -258 l-3 -45 50 -3 50 -2 40 62 c64
99 65 103 65 209 l0 98 -30 16 c-16 8 -33 15 -37 15 -5 0 -34 -42 -65 -92z"/>
<path d="M213 962 l-30 -67 36 -105 37 -105 77 -59 77 -59 43 48 44 48 -43
126 c-41 120 -46 128 -91 163 -26 20 -64 46 -84 57 l-36 20 -30 -67z"/>
<path d="M633 998 c-11 -13 -41 -51 -67 -86 -56 -74 -56 -71 1 -225 40 -111
44 -114 196 -188 l80 -39 31 23 c17 13 57 43 89 66 31 24 57 44 57 45 0 1 -20
61 -45 135 -25 73 -45 139 -45 147 0 7 -10 19 -22 26 -21 11 -249 118 -253
118 -1 0 -11 -10 -22 -22z"/>
<path d="M2192 847 c-20 -22 -67 -73 -104 -111 l-68 -71 3 -110 2 -110 85 -1
85 -1 48 46 c125 119 134 138 140 285 l2 69 -78 22 -78 23 -37 -41z"/>
<path d="M1660 655 c-23 -19 -80 -62 -126 -96 -46 -33 -84 -65 -84 -72 0 -17
51 -181 59 -189 8 -9 43 -14 156 -24 44 -4 82 -8 84 -10 4 -4 93 57 179 122
l51 39 -1 102 c-1 56 -4 106 -7 111 -3 5 -51 16 -106 26 -172 29 -159 30 -205
-9z"/>
<path d="M988 517 l-86 -63 50 -94 c28 -52 51 -96 53 -98 4 -5 110 -40 182
-60 l72 -20 98 50 c54 28 100 52 102 54 6 5 -51 188 -63 201 -6 7 -24 14 -41
17 -33 6 -175 48 -218 65 -46 18 -59 14 -149 -52z"/>
<path d="M2029 412 c-23 -2 -51 -16 -80 -40 -25 -20 -71 -55 -102 -76 -56 -39
-57 -40 -57 -87 0 -76 3 -79 79 -78 80 2 111 8 142 32 13 9 51 37 85 62 58 42
62 48 73 102 18 90 19 89 -46 88 -32 0 -74 -1 -94 -3z"/>
<path d="M2218 274 c-56 -14 -228 -137 -228 -163 0 -9 -3 -26 -6 -38 l-6 -22
58 16 c58 16 143 67 196 116 21 19 58 85 58 102 0 5 -28 1 -72 -11z"/>
<path d="M1414 226 c-130 -66 -122 -56 -88 -120 16 -31 36 -58 44 -61 17 -5
177 -19 201 -17 8 0 55 20 103 43 l88 43 -7 60 c-3 33 -8 62 -10 65 -3 2 -19
5 -37 7 -62 4 -153 15 -179 20 -17 3 -53 -9 -115 -40z"/>
<path d="M922 203 l-52 -24 31 -44 c49 -69 67 -80 171 -109 l97 -27 71 21 c38
11 70 25 70 31 0 5 -11 27 -25 49 -14 22 -25 44 -25 50 0 5 -12 12 -27 16 -16
3 -71 19 -125 35 -53 16 -104 29 -115 28 -10 0 -42 -12 -71 -26z"/>
</g>
</svg>
